<?xml version="1.0" encoding="UTF-8"?>
<svg xmlns="http://www.w3.org/2000/svg" xmlns:xlink="http://www.w3.org/1999/xlink" width="32px" height="32px" viewBox="0 0 32 32" version="1.1">
<g id="surface1">
<path style=" stroke:none;fill-rule:evenodd;fill:rgb(32.941177%,90.196079%,68.627453%);fill-opacity:1;" d="M 16 0 C 24.835938 0 32 7.164062 32 16 C 32 24.835938 24.835938 32 16 32 C 7.164062 32 0 24.835938 0 16 C 0 7.164062 7.164062 0 16 0 Z M 13.257812 7.902344 C 12.378906 7.902344 11.679688 8.5 11.554688 9.359375 L 10.214844 18.664062 C 10.207031 18.707031 10.191406 18.820312 10.03125 18.828125 C 9.878906 18.832031 9.847656 18.730469 9.835938 18.683594 L 9.40625 16.777344 C 9.121094 15.59375 8.066406 14.738281 6.894531 14.738281 C 6.46875 14.738281 6.125 15.082031 6.125 15.503906 C 6.125 15.925781 6.46875 16.265625 6.894531 16.265625 C 7.351562 16.265625 7.78125 16.632812 7.898438 17.117188 L 8.332031 19.023438 L 8.335938 19.03125 C 8.527344 19.847656 9.257812 20.390625 10.101562 20.351562 C 10.945312 20.316406 11.621094 19.710938 11.742188 18.882812 L 13.082031 9.578125 C 13.089844 9.53125 13.105469 9.429688 13.253906 9.429688 L 13.308594 9.433594 C 13.410156 9.453125 13.421875 9.535156 13.429688 9.578125 L 15.308594 22.613281 C 15.4375 23.492188 16.148438 24.097656 17.039062 24.097656 L 17.070312 24.097656 C 17.972656 24.085938 18.679688 23.453125 18.78125 22.5625 L 19.042969 20.25 C 19.066406 20.046875 19.007812 19.84375 18.878906 19.683594 C 18.75 19.527344 18.566406 19.425781 18.363281 19.40625 C 17.941406 19.355469 17.558594 19.65625 17.507812 20.078125 L 17.246094 22.390625 C 17.242188 22.4375 17.226562 22.566406 17.046875 22.570312 C 16.863281 22.574219 16.84375 22.445312 16.839844 22.394531 L 14.957031 9.359375 C 14.832031 8.503906 14.132812 7.902344 13.257812 7.902344 Z M 19.660156 13.136719 C 18.859375 13.15625 18.238281 13.71875 18.148438 14.507812 L 17.820312 17.367188 C 17.800781 17.566406 17.859375 17.769531 17.984375 17.929688 C 18.113281 18.089844 18.296875 18.1875 18.5 18.210938 C 18.921875 18.261719 19.304688 17.957031 19.355469 17.539062 L 19.679688 14.675781 L 20.324219 18.332031 C 20.453125 19.109375 21.097656 19.671875 21.894531 19.703125 L 21.960938 19.707031 C 22.726562 19.707031 23.382812 19.199219 23.570312 18.457031 L 23.570312 18.449219 L 23.84375 17.304688 C 23.996094 16.714844 24.535156 16.265625 25.105469 16.265625 C 25.53125 16.265625 25.875 15.925781 25.875 15.503906 C 25.875 15.082031 25.53125 14.738281 25.105469 14.738281 C 23.824219 14.738281 22.664062 15.664062 22.34375 16.941406 L 22.34375 16.949219 L 22.070312 18.09375 C 22.0625 18.128906 22.042969 18.179688 21.953125 18.175781 C 21.859375 18.171875 21.851562 18.117188 21.84375 18.082031 L 21.238281 14.425781 C 21.109375 13.644531 20.457031 13.113281 19.660156 13.136719 Z M 19.660156 13.136719 "/>
</g>
</svg>
